<svg width="339" height="325" viewBox="0 0 339 325" fill="none" xmlns="http://www.w3.org/2000/svg">
<path d="M97.4444 61.8801C102.106 37.3795 86.0448 13.7348 61.5706 9.06815C37.0964 4.40149 13.4771 20.4801 8.81551 44.9806C4.15388 69.4812 20.2151 93.1259 44.6893 97.7926C69.1635 102.459 92.7828 86.3807 97.4444 61.8801Z" fill="#E79696"/>
<path opacity="0.5" d="M94.6132 45.8653C76.2489 57.0044 46.0667 75.277 29.1967 85.2938C24.4642 81.295 20.6667 76.2274 18.1772 70.4607L73.9715 18.6951C84.3607 24.1715 92.0665 34.0592 94.6132 45.8653Z" fill="#EBEBEB"/>
<path opacity="0.5" d="M95.4985 55.8423C95.3443 60.4546 94.4125 64.869 92.8327 68.9618L42.5347 92.7749C40.3276 92.0437 38.2037 91.1292 36.1828 90.042C51.3761 81.2522 79.1405 65.2602 95.4985 55.8423Z" fill="#EBEBEB"/>
<path d="M55.5881 16.9922H54.8089V23.1111H55.5881V16.9922Z" fill="#C7C7C7"/>
<path d="M36.8418 21.8124L36.1662 22.2028L39.2228 27.503L39.8983 27.1126L36.8418 21.8124Z" fill="#C7C7C7"/>
<path d="M23.006 35.375L22.6163 36.0505L27.9102 39.111L28.2999 38.4355L23.006 35.375Z" fill="#C7C7C7"/>
<path d="M23.9109 54.0432H17.7986V54.8232H23.9109V54.0432Z" fill="#C7C7C7"/>
<path d="M27.9061 69.7545L22.6122 72.8143L23.0018 73.4899L28.2957 70.43L27.9061 69.7545Z" fill="#C7C7C7"/>
<path d="M39.2204 81.3654L36.1667 86.6661L36.8424 87.0562L39.8961 81.7554L39.2204 81.3654Z" fill="#C7C7C7"/>
<path d="M55.5881 85.7552H54.8089V91.8749H55.5881V85.7552Z" fill="#C7C7C7"/>
<path d="M71.1786 81.3619L70.5032 81.7523L73.5593 87.0512L74.2348 86.6608L71.1786 81.3619Z" fill="#C7C7C7"/>
<path d="M82.4962 69.7606L82.1065 70.4362L87.4004 73.4966L87.7901 72.8211L82.4962 69.7606Z" fill="#C7C7C7"/>
<path d="M92.5999 54.0432H86.4876V54.8232H92.5999V54.0432Z" fill="#C7C7C7"/>
<path d="M87.3983 35.374L82.1044 38.4344L82.4941 39.11L87.788 36.0495L87.3983 35.374Z" fill="#C7C7C7"/>
<path d="M73.5653 21.8126L70.5112 27.1141L71.1869 27.5042L74.241 22.2027L73.5653 21.8126Z" fill="#C7C7C7"/>
<path d="M55.2712 19.7571C55.5593 19.7605 55.7938 19.9896 55.804 20.2775L57.0429 55.2263C57.0802 56.2778 56.2308 57.147 55.1787 57.134V57.134C54.1418 57.1212 53.3198 56.2557 53.3603 55.2196L54.7258 20.2755C54.7372 19.9835 54.9791 19.7537 55.2712 19.7571V19.7571Z" fill="#C7C7C7"/>
<path d="M79.0535 41.3928L53.9213 57.4513L52.0943 54.0859L78.5567 40.4791L79.0535 41.3928Z" fill="#A6A6A6"/>
<path d="M56.5047 54.4335C56.5047 55.1555 55.9201 55.7407 55.1989 55.7407C54.4777 55.7407 53.8931 55.1555 53.8931 54.4335C53.8931 53.7116 54.4777 53.1263 55.1989 53.1263C55.9201 53.1263 56.5047 53.7116 56.5047 54.4335Z" fill="#C7C7C7"/>
<path d="M325.671 16.038H180.936C179.279 16.038 177.936 17.3811 177.936 19.038V117.463C177.936 119.12 179.279 120.463 180.936 120.463H325.671C327.328 120.463 328.671 119.12 328.671 117.463V19.038C328.671 17.3811 327.328 16.038 325.671 16.038Z" fill="#4A3131"/>
<path d="M318.512 22.2034H188.095C185.886 22.2034 184.095 23.9943 184.095 26.2034V110.352C184.095 112.561 185.886 114.352 188.095 114.352H318.512C320.722 114.352 322.512 112.561 322.512 110.352V26.2034C322.512 23.9943 320.722 22.2034 318.512 22.2034Z" fill="#EBEBEB"/>
<path d="M253.323 22H251V114.249H253.323V22Z" fill="#4B3131"/>
<path d="M253.323 22H251V114.249H253.323V22Z" fill="#4A3131"/>
<path d="M322.992 66.6408L323 64.2153L184.008 64L184 66.4256L322.992 66.6408Z" fill="#4A3131"/>
<path d="M175.049 324.922C265.19 324.922 338.264 317.74 338.264 308.879C338.264 300.019 265.19 292.836 175.049 292.836C84.9081 292.836 11.8344 300.019 11.8344 308.879C11.8344 317.74 84.9081 324.922 175.049 324.922Z" fill="#E79696"/>
<path d="M300.635 67H34C30.6863 67 28 69.6863 28 73V250.67C28 253.984 30.6863 256.67 34 256.67H300.635C303.949 256.67 306.635 253.984 306.635 250.67V73C306.635 69.6863 303.949 67 300.635 67Z" fill="#263238"/>
<path d="M217.071 290.862H117.564C115.055 290.862 113.022 292.895 113.022 295.404C113.022 297.912 115.055 299.946 117.564 299.946H217.071C219.579 299.946 221.613 297.912 221.613 295.404C221.613 292.895 219.579 290.862 217.071 290.862Z" fill="#1D1C1B"/>
<g opacity="0.4">
<path d="M178 291H155L155.584 275.323L155.613 274.583L155.667 273.113L155.694 272.374L155.75 270.903L155.758 270.675L155.777 270.164L155.833 268.693L155.86 267.954L156.269 257H176.731L177.117 267.332L177.136 267.829L177.199 269.542L177.217 270.039L177.242 270.675L177.282 271.752L177.3 272.25L177.363 273.969L177.383 274.46L178 291Z" fill="white"/>
</g>
<path d="M288.778 79.3325H45.858C43.0966 79.3325 40.858 81.571 40.858 84.3325V210.535C40.858 213.296 43.0966 215.535 45.858 215.535H288.778C291.539 215.535 293.778 213.296 293.778 210.535V84.3325C293.778 81.571 291.539 79.3325 288.778 79.3325Z" fill="white"/>
<path d="M288.92 79H46C43.2386 79 41 81.2386 41 84V210.202C41 212.964 43.2386 215.202 46 215.202H288.92C291.681 215.202 293.92 212.964 293.92 210.202V84C293.92 81.2386 291.681 79 288.92 79Z" fill="#DDDDDD"/>
<path d="M123.228 108.735H198.38V117.07H123.228V108.735Z" fill="#FD9898"/>
<path d="M56 108.735H113.398V117.07H56" fill="white"/>
<path d="M266.364 131.726H137.513V123.391H266.364" fill="#78A482"/>
<path d="M231.316 97.3345H102.465V89H231.316" fill="#78A482"/>
<path d="M96.0908 123.391H127.409V131.726H96.0908V123.391Z" fill="#FD9898"/>
<path d="M56 123.391H86.2626V131.726H56" fill="white"/>
<path d="M56 89H92.8343V97.3345H56" fill="white"/>
<path d="M266.364 146.38H198.38V138.045H266.364" fill="#78A482"/>
<path d="M96.0908 138.045H188.276V146.38H96.0908V138.045Z" fill="#FD9898"/>
<path d="M240.114 161.034H198.38V152.701H240.114" fill="#FD9898"/>
<path d="M56 152.701H188.55V161.034H56" fill="white"/>
<path d="M266.364 175.69H208.483V167.355H266.364" fill="#78A482"/>
<path d="M96.0908 167.355H198.38V175.69H96.0908V167.355Z" fill="#FD9898"/>
<path d="M56 167.355H86.2626V175.69H56" fill="white"/>
<path d="M266.364 190.344H169.439V182.01H266.364" fill="#78A482"/>
<path d="M123.227 182.01H159.334V190.344H123.227V182.01Z" fill="#FD9898"/>
<path d="M56 182.01H113.398V190.344H56" fill="white"/>
<path d="M96.0908 196.665H223.966V205H96.0908V196.665Z" fill="#FD9898"/>
<path d="M56 196.665H86.2626V205H56" fill="white"/>
<g opacity="0.1">
<path d="M199.493 79.3317C208.466 79.3317 212.962 90.1782 206.62 96.5262L90.6845 212.581C88.7949 214.473 86.2308 215.535 83.5571 215.535V215.535C74.5842 215.535 70.0882 204.689 76.4297 198.341L192.365 82.2861C194.255 80.3946 196.819 79.3317 199.493 79.3317V79.3317Z" fill="white"/>
<path d="M292.068 151.8C292.698 151.17 293.776 151.616 293.776 152.507V178.189C293.776 178.454 293.67 178.708 293.483 178.896L257.175 215.242C256.988 215.43 256.733 215.535 256.468 215.535H230.814C229.924 215.535 229.477 214.459 230.107 213.829L292.068 151.8Z" fill="white"/>
<path d="M95.5918 79.3317C96.4824 79.3317 96.9287 80.4083 96.2993 81.0384L42.5625 134.84C41.9327 135.47 40.8549 135.024 40.8549 134.133V108.452C40.8549 108.187 40.9602 107.933 41.1475 107.745L69.2376 79.625C69.4252 79.4372 69.6797 79.3317 69.9451 79.3317H95.5918Z" fill="white"/>
<path d="M292.068 113.833C292.698 113.202 293.776 113.648 293.776 114.539V123.608C293.776 123.873 293.67 124.127 293.483 124.315L202.653 215.242C202.465 215.43 202.211 215.535 201.946 215.535H192.887C191.996 215.535 191.55 214.459 192.179 213.829L292.068 113.833Z" fill="white"/>
<path d="M146.418 79.3317C147.308 79.3317 147.755 80.4083 147.125 81.0385L42.5624 185.714C41.9326 186.344 40.8549 185.898 40.8549 185.007V175.939C40.8549 175.674 40.9602 175.419 41.1475 175.232L136.652 79.625C136.84 79.4372 137.094 79.3317 137.36 79.3317H146.418Z" fill="white"/>
<path d="M248.286 79.3317C249.176 79.3317 249.623 80.4084 248.993 81.0385L114.927 215.242C114.74 215.43 114.485 215.535 114.22 215.535H113.888C112.997 215.535 112.551 214.459 113.18 213.829L247.233 79.625C247.421 79.4372 247.676 79.3317 247.941 79.3317H248.286Z" fill="white"/>
<path d="M57.6998 79.3317C58.5904 79.3317 59.0367 80.4084 58.4072 81.0385L42.5624 96.8997C41.9326 97.5302 40.8549 97.0841 40.8549 96.193V95.8546C40.8549 95.5895 40.9602 95.3353 41.1475 95.1478L56.6536 79.625C56.8411 79.4372 57.0957 79.3317 57.3611 79.3317H57.6998Z" fill="white"/>
</g>
<path d="M178 291H155L155.584 273.939L155.613 273.135L155.667 271.534L155.694 270.73L155.75 269.13L155.758 268.882L155.777 268.325L155.833 266.725L155.86 265.92L156.269 254H176.731L177.117 265.244L177.136 265.785L177.199 267.649L177.217 268.19L177.242 268.882L177.282 270.054L177.3 270.595L177.363 272.466L177.383 273L178 291Z" fill="#263238"/>
<g opacity="0.16">
<path d="M178 270.753L155 267.817L155.44 256H177.45L178 270.753Z" fill="#696161"/>
</g>
<path opacity="0.3" d="M217.049 291H117.542C115.034 291 113 293.034 113 295.542C113 298.05 115.034 300.084 117.542 300.084H217.049C219.557 300.084 221.591 298.05 221.591 295.542C221.591 293.034 219.557 291 217.049 291Z" fill="#263238"/>
<path d="M302.635 228.691H32C29.7909 228.691 28 230.482 28 232.691V252.669C28 254.878 29.7909 256.669 32 256.669H302.635C304.844 256.669 306.635 254.878 306.635 252.669V232.691C306.635 230.482 304.844 228.691 302.635 228.691Z" fill="#1D1C1B"/>
<path d="M171.231 241.621C171.231 244.173 169.165 246.242 166.616 246.242C164.067 246.242 162 244.173 162 241.621C162 239.069 164.067 237 166.616 237C169.165 237 171.231 239.069 171.231 241.621Z" fill="#37474F"/>
<path d="M298.42 99.9396L291.01 101.311L289.355 109.13L287.699 101.311L280.29 99.9358L287.667 98.1312L289.355 90.7457L291.042 98.1312L298.42 99.9396Z" fill="#FFC727"/>
<path d="M278.467 85.6093L274.325 86.3756L273.4 90.7457L272.475 86.3756L268.334 85.607L272.457 84.5985L273.4 80.4706L274.344 84.5985L278.467 85.6093Z" fill="#FFC727"/>
<path d="M60.2657 179.511L56.1239 180.277L55.1989 184.647L54.2732 180.277L50.1322 179.509L54.2556 178.5L55.1989 174.372L56.1422 178.5L60.2657 179.511Z" fill="#FFC727"/>
<g opacity="0.8">
<path d="M302 74.0027L291.374 75.9422L289 87L286.625 75.9422L276 73.9973L286.58 71.4452L289 61L291.42 71.4452L302 74.0027Z" fill="#E79696"/>
<path d="M75 185.502L68.8692 186.62L67.5 193L66.1297 186.62L60 185.498L66.1037 184.026L67.5 178L68.8963 184.026L75 185.502Z" fill="#FD9898"/>
</g>
<path d="M64.0006 218.602C63.7152 214.422 63.2038 210.237 62.2331 206.156C61.3562 202.472 60.113 198.704 57.7914 195.659C55.6713 192.877 52.6254 190.662 49.0858 190.228C45.6767 189.81 42.4737 191.332 39.9231 193.482C36.7628 196.146 34.3428 199.675 32.0715 203.093C29.5309 206.918 27.3688 210.892 25.2884 214.978C25.2197 215.113 25.4258 215.226 25.493 215.091C27.2086 211.639 29.3195 208.283 31.5587 205.147C33.6742 202.183 35.9347 199.231 38.5433 196.681C40.884 194.394 43.8581 192.255 47.2496 192.146C50.6236 192.038 53.7381 193.935 55.7697 196.538C58.0409 199.449 59.1964 203.085 60.0618 206.626C61.012 210.515 61.4867 214.492 61.8103 218.476C62.4765 226.674 62.6574 234.921 62.8421 243.141C62.9474 247.793 63.01 252.446 63.052 257.099C63.0733 259.457 63.0924 261.814 63.11 264.171C63.1268 266.443 63.0085 268.746 63.3817 270.99C63.458 271.448 64.2067 271.404 64.2837 270.968C64.6585 268.843 64.5661 266.661 64.5959 264.507C64.6264 262.272 64.6554 260.037 64.6752 257.803C64.7142 253.459 64.7363 249.114 64.7241 244.77C64.7004 236.055 64.5959 227.302 64.0006 218.602Z" fill="#CAB3A8"/>
<path d="M37.2772 197.081C36.5384 197.379 37.5435 188.641 34.1031 187.525C29.2417 185.946 18.0985 188.799 11.9191 197.081C10.8125 198.569 9.90429 200.468 9.2327 202.65C12.2991 201.163 22.4372 196.464 24.9816 197.904C27.2971 199.218 12.7647 203.782 8.29246 206.717C8.0948 207.896 7.96048 209.122 7.8895 210.38C10.5049 208.576 17.633 203.901 20.8177 203.901C24.3581 203.901 12.6151 210.119 7.86584 214.58C8.06351 218.82 8.9404 223.195 10.6079 227.182C11.8252 224.88 14.504 220.394 17.965 217.974C22.7615 214.62 24.8633 220.014 18.8182 224.287C15.5945 226.565 13.2707 228.448 11.8015 229.713C13.1921 232.332 14.9703 234.713 17.1751 236.675C17.1751 236.675 20.2018 232.989 25.0618 231.28C26.2309 230.869 28.1435 230.338 30.4505 229.563C30.8535 228.052 31.9838 223.527 32.0868 220.608C32.2211 217.056 36.4247 219.026 34.7182 225.339C34.3939 226.525 34.1016 227.506 33.8253 228.321C35.0578 227.838 37.5206 226.896 38.9661 225.8C39.195 223.735 38.8478 218.974 38.0029 214.488C36.9521 208.896 41.206 208.5 42.1302 215.54C42.5568 218.791 41.9394 222.162 41.7334 224.353C46.5429 221.547 50.5282 215.848 50.5282 215.848C50.1565 214.02 49.7841 210.937 47.2 207.035C44.8334 203.461 47.3931 202.057 49.7643 205.285C51.0838 207.081 51.8661 210.103 52.3011 212.42C57.3815 195.449 51.0968 191.514 37.2772 197.081ZM14.2193 215.672C12.9074 213.765 17.443 210.277 18.4229 211.463C19.6875 212.982 15.5304 217.578 14.2193 215.672ZM44.5319 207.848C42.6911 209.185 40.929 204.77 42.1218 204.011C43.3223 203.244 46.0964 206.709 44.5319 207.848Z" fill="#286541"/>
<path d="M84.7972 216.084C81.1759 212.448 76.9662 207.675 71.3698 207.685C65.9681 207.694 61.9927 212.048 59.7085 216.54C57.3197 221.237 56.4619 226.558 55.7873 231.73C54.9791 237.923 54.5318 244.165 54.3555 250.407C54.2579 253.874 54.2708 257.346 54.3571 260.814C54.4433 264.312 54.528 267.862 55.15 271.313C55.2508 271.873 56.1475 271.894 56.1818 271.289C56.3451 268.37 56.2276 265.436 56.2116 262.513C56.1956 259.636 56.2406 256.758 56.3467 253.881C56.5604 248.062 56.9832 242.253 57.6654 236.471C58.2615 231.42 58.7347 226.227 60.245 221.348C61.6065 216.948 64.1593 211.915 68.6163 209.982C74.6973 207.344 80.6378 212.162 84.6178 216.232C84.7208 216.34 84.9032 216.191 84.7972 216.084Z" fill="#CAB3A8"/>
<path d="M95.819 221.769C90.9614 221.275 92.2977 218.63 96.7203 219.792C99.541 220.537 101.788 221.856 103.31 222.958C103.342 218.953 102.849 214.882 101.359 211.445C97.3018 210.427 93.6164 212.215 89.8296 213.99C86.0022 215.787 83.5173 211.162 87.9651 208.951C92.4793 206.704 96.75 207.391 99.9768 208.733C99.6265 208.123 99.2731 207.559 98.8953 207.026C97.7338 205.347 96.4768 203.989 95.1909 202.921C91.8787 203.19 90.041 205.233 89.061 205.883C87.6644 206.798 85.4695 205.719 86.8616 203.734C87.9483 202.179 90.6561 201.468 92.896 201.283C88.9023 198.93 84.9238 198.922 82.6679 199.947C78.7536 201.731 79.8518 212.056 79.8518 212.056C79.8518 212.056 69.5916 206.56 66.2291 210.882C65.3018 212.073 64.5447 213.851 64.0967 215.936C67.7287 214.597 72.1902 214.272 72.6085 216.454C73.0526 218.749 66.9144 218.075 63.7243 218.445C63.3389 223.044 64.4112 228.425 68.0744 232.228C71.1928 226.231 78.1186 221.676 79.1084 224.978C80.0769 228.216 72.6527 229.128 69.6069 233.608C70.7593 234.495 72.2246 235.285 73.8761 235.99C75.5375 233.495 78.3125 230.056 79.6472 231.102C80.982 232.139 77.4875 234.578 75.2269 236.538C78.2338 237.679 81.7193 238.574 85.1047 239.259C85.9267 235.798 87.5126 232.563 89.0328 232.866C90.5141 233.158 87.6041 236.781 86.3266 239.508C93.3432 240.841 99.6272 241.293 99.9073 241.226C100.187 241.153 102.054 235.69 102.893 228.896C101.312 228.195 99.1159 227.638 95.8403 227.482C92.4068 227.318 92.0794 223.406 97.2194 223.952C99.4227 224.192 101.501 225.249 103.154 226.414C103.203 225.696 103.247 224.961 103.274 224.218V224.21C101.502 223.213 98.9053 222.083 95.819 221.769ZM94.5399 216.418C95.0619 215.255 98.1993 215.666 97.8933 217.101C97.5949 218.535 94.1049 217.411 94.5399 216.418ZM68.8559 226.126C68.6651 225.151 70.7646 224.262 71.0592 225.044C71.3462 225.826 69.1185 227.43 68.8559 226.126ZM83.6234 234.142C81.9559 233.271 84.3454 229.464 85.874 230.076C87.1241 230.58 85.2909 235.014 83.6234 234.142Z" fill="#286541"/>
<path d="M63.7609 270.066C63.7014 267.88 63.3549 265.679 63.1199 263.504C62.8833 261.32 62.6353 259.137 62.4025 256.952C61.9537 252.742 61.7027 248.438 60.7136 244.31C59.8626 240.76 58.3004 237.359 55.5759 234.856C54.1976 233.59 52.4453 232.552 50.5374 232.449C48.5859 232.343 46.7871 233.019 45.1875 234.1C43.3658 235.33 41.9608 237.075 40.6886 238.845C39.3774 240.67 38.2166 242.555 37.181 244.549C37.1421 244.624 37.2596 244.67 37.3008 244.6C39.2149 241.278 41.8539 238.412 44.8906 236.087C46.2888 235.016 47.8937 234.213 49.675 234.091C51.441 233.97 53.0154 234.815 54.3136 235.943C56.8611 238.159 58.3347 241.419 59.2124 244.621C60.2534 248.415 60.5899 252.409 61.1089 256.299C61.418 258.612 61.7126 260.927 62.0178 263.24C62.3216 265.541 62.5131 267.901 63.0008 270.171C63.1061 270.658 63.7739 270.557 63.7609 270.066Z" fill="#CAB3A8"/>
<path d="M50.1932 237.198C45.1753 237.099 39.8598 240.845 39.8598 240.845C39.8598 240.845 42.6827 231.07 34.8365 231.387C30.1689 231.573 24.3482 236.469 23.1782 244.107C24.9763 243.151 28.77 241.313 31.7693 241.258C35.8348 241.185 36.111 244.369 30.5002 244.854C26.4637 245.204 24.207 245.7 22.9867 246.1C22.8913 248.276 23.1622 250.645 23.9307 253.157C27.0567 251.254 32.4005 249.235 32.5569 251.858C32.6752 253.807 27.1582 253.962 24.4337 254.645C25.4098 257.294 26.9369 260.082 29.1135 262.984C29.1135 262.984 34.574 262.267 40.4192 260.432C40.4222 259.295 40.3604 257.845 40.0681 256.338C39.4019 252.852 41.9654 252.79 42.2989 256.14C42.4332 257.528 42.289 258.83 42.06 259.878C44.6418 258.975 47.1969 257.847 49.3148 256.452C49.3293 255.244 49.1415 252.617 47.706 248.726C46.7108 246.002 48.689 244.438 50.3588 247.573C51.4349 249.59 50.9999 253.381 50.6412 255.515C51.5829 254.768 52.3873 253.967 53.0169 253.086C58.3828 245.615 55.1996 237.305 50.1932 237.198ZM28.5533 239.004C28.7357 237.593 32.2364 237.858 32.0624 238.957C31.8846 240.076 28.3434 240.588 28.5533 239.004ZM24.6466 250.485C24.9885 249.58 26.5003 249.705 26.4278 250.424C26.3675 251.134 24.4176 251.075 24.6466 250.485ZM45.4485 255.41C43.4139 255.493 44.0855 251.26 45.2684 251.093C46.2705 250.95 47.0016 255.344 45.4485 255.41Z" fill="#286541"/>
<path d="M43.6322 255.794C43.4368 255.267 43.2628 254.732 43.0964 254.194C43.249 254.737 43.3849 255.284 43.4864 255.834C43.5062 255.942 43.6711 255.899 43.6322 255.794Z" fill="#263238"/>
<path d="M43.0968 254.195C43.0608 254.067 43.0202 253.941 42.9827 253.814C43.021 253.941 43.0577 254.068 43.0968 254.195Z" fill="#263238"/>
<path d="M75.8316 265.814C76.4024 265.814 76.8574 266.291 76.8305 266.861L76.3274 277.506L74.9528 306.688C74.9277 307.222 74.4879 307.641 73.9539 307.641H44.8044C44.2704 307.641 43.8307 307.222 43.8055 306.689L42.4302 277.506L41.9278 266.861C41.9009 266.291 42.3559 265.814 42.9267 265.814H75.8316Z" fill="#AF958A"/>
<path d="M75.8316 265.814C76.4024 265.814 76.8574 266.291 76.8305 266.861L76.3725 276.553C76.3473 277.087 75.9075 277.506 75.3736 277.506H43.3841C42.8501 277.506 42.4104 277.087 42.3852 276.553L41.9278 266.861C41.9009 266.291 42.3559 265.814 42.9267 265.814H75.8316Z" fill="#DFD4B2"/>
<path d="M77.0886 261.087H41.6705C40.5659 261.087 39.6705 261.983 39.6705 263.087V268.541C39.6705 269.645 40.5659 270.541 41.6705 270.541H77.0886C78.1932 270.541 79.0886 269.645 79.0886 268.541V263.087C79.0886 261.983 78.1932 261.087 77.0886 261.087Z" fill="#AF958A"/>
<path d="M51.8165 307.641H46.3643V312.591H51.8165V307.641Z" fill="#DFD4B2"/>
<path d="M51.8165 307.641H46.3643V310.116H51.8165V307.641Z" fill="#AF958A"/>
<path d="M72.394 307.641H66.9465V312.591H72.394V307.641Z" fill="#DFD4B2"/>
<path d="M72.394 307.641H66.9465V310.116H72.394V307.641Z" fill="#AF958A"/>
<path d="M307.221 301.137L331.51 198.534L302.579 155.62L298.151 158.612L325.771 199.581L302.022 299.904L307.221 301.137Z" fill="#806666"/>
<path d="M333.284 199.057C333.284 201.625 331.205 203.705 328.641 203.705C326.076 203.705 323.998 201.624 323.998 199.057C323.998 196.49 326.076 194.409 328.641 194.409C331.205 194.409 333.284 196.49 333.284 199.057Z" fill="#E5BFA4"/>
<path d="M273.301 143.289C271.747 144.286 271.455 146.437 272.686 147.813L289.811 166.952C291.044 168.329 293.217 168.275 294.38 166.838L302.235 157.126L306.765 151.518C307.69 150.373 307.648 148.727 306.666 147.631L293.713 133.172C292.73 132.074 291.095 131.853 289.856 132.65L283.799 136.543L273.301 143.289Z" fill="#E5BFA4"/>
<path opacity="0.1" d="M273.301 143.288C271.747 144.286 271.455 146.437 272.686 147.813L289.811 166.952C291.044 168.329 293.217 168.275 294.38 166.838L300.629 159.111C301.554 157.967 301.513 156.32 300.531 155.223L285.505 138.447C284.522 137.35 282.888 137.128 281.649 137.925L273.301 143.288Z" fill="black"/>
<path d="M241.739 155.342C240.155 156.326 239.843 158.502 241.087 159.892L274.369 197.074C275.614 198.466 277.815 198.393 278.966 196.923L300.481 169.448C301.377 168.303 301.324 166.681 300.355 165.597L275.191 137.484C274.22 136.399 272.61 136.168 271.373 136.936L241.739 155.342Z" fill="#E5BFA4"/>
<path d="M277.32 310.208C277.079 311.443 278.025 312.591 279.283 312.591H330.734C331.992 312.591 332.938 311.443 332.697 310.208L330.022 296.501C329.838 295.562 329.016 294.884 328.059 294.884H281.958C281.001 294.884 280.178 295.562 279.995 296.501L277.32 310.208Z" fill="#E5BFA4"/>
<path d="M260.158 309.333H241.307C240.755 309.333 240.307 309.781 240.307 310.333V311.591C240.307 312.143 240.755 312.591 241.307 312.591H260.158C260.71 312.591 261.158 312.143 261.158 311.591V310.333C261.158 309.781 260.71 309.333 260.158 309.333Z" fill="#CE96A3"/>
<path d="M260.158 309.333H241.307C240.755 309.333 240.307 309.781 240.307 310.333V310.482C240.307 311.034 240.755 311.482 241.307 311.482H260.158C260.71 311.482 261.158 311.034 261.158 310.482V310.333C261.158 309.781 260.71 309.333 260.158 309.333Z" fill="#E2AFBB"/>
<path d="M215.558 300.576C218.023 304.045 222.388 306.528 227.298 305.602C227.995 305.471 228.697 305.275 229.414 304.995C230.385 304.619 231.365 304.113 232.361 303.443L229.712 299.512C229.174 299.887 228.651 300.178 228.148 300.401C223.183 302.654 220.039 298.736 219.422 297.841C216.564 293.82 215.54 284.636 218.436 281.103C218.627 280.843 219.464 280.428 222.822 281.143C223.441 281.283 224.144 281.439 224.939 281.659C225.821 281.91 226.344 282.052 226.845 282.07L226.93 279.709L227.16 277.354C226.944 277.315 226.605 277.218 226.164 277.092C224.897 276.753 223.19 276.288 221.424 276.108C218.954 275.851 216.363 276.148 214.774 278.101C210.07 283.868 211.978 295.535 215.558 300.576Z" fill="#B57C8A"/>
<path opacity="0.1" d="M229.712 299.511C229.174 299.886 228.651 300.177 228.148 300.4L229.414 304.994C230.385 304.618 231.365 304.113 232.361 303.443L229.712 299.511Z" fill="black"/>
<path d="M221.425 276.107L222.822 281.141C223.441 281.281 224.144 281.438 224.939 281.657C225.821 281.908 226.344 282.051 226.845 282.068L226.93 279.707L227.16 277.352C226.944 277.313 226.605 277.216 226.164 277.091C224.898 276.751 223.191 276.287 221.425 276.107Z" fill="#E2AFBB"/>
<path d="M276.218 269.953C277.415 269.953 278.342 270.988 278.181 272.174C277.41 277.859 275.113 292.99 271.644 300.184C267.324 309.13 261.294 310.131 257.548 310.131C253.801 310.131 254.143 310.131 250.739 310.131C247.32 310.131 247.676 310.131 243.916 310.131C240.169 310.131 234.14 309.129 229.819 300.184C226.35 292.99 224.053 277.859 223.283 272.174C223.122 270.988 224.048 269.953 225.245 269.953H276.218Z" fill="#B57C8A"/>
</svg>
