<svg width="136" height="153" viewBox="0 0 136 153" fill="none" xmlns="http://www.w3.org/2000/svg">
<path d="M63.4506 1.35121C69.3753 -1.65813 77.1222 0.800867 82.5697 4.40383C86.6648 7.11223 90.2574 10.54 92.0664 14.6768C94.5885 20.4471 97.7149 26.4834 99.2466 32.5C101.353 40.7798 104.253 48.7029 103.09 57.1167C102.509 61.3226 99.8436 65.1626 99.2466 69.3664C98.5007 74.6214 101.035 79.7496 102.761 84.8345C105.206 92.0477 106.068 99.6483 105.29 107.126C98.8798 108.878 92.1753 109.844 85.4455 109.986C80.5622 110.089 75.3508 109.661 71.4846 107.12C65.5636 103.228 64.86 95.965 64.8358 89.5969C64.7389 63.2652 53.7203 18.6116 53.7203 18.6116" fill="#1F0A0D"/>
<path d="M132.619 141.06C129.037 137.881 123.269 137.499 118.088 137.661C115.576 137.737 113.064 137.9 110.552 138.11C105.99 138.492 101.428 139.055 96.8886 139.637C84.6331 141.212 72.4227 142.931 60.1785 141.766C54.997 141.27 49.8718 140.258 44.6677 140.277C42.2121 140.286 39.779 140.525 37.3572 140.859C33.043 141.451 28.7739 142.348 24.4372 142.778C24.1105 142.807 23.7839 142.835 23.4459 142.864C16.9465 143.37 9.88383 142.568 5.25424 138.711C6.48204 130.988 8.23927 123.322 10.5146 115.761C11.6073 112.115 12.8914 108.372 15.7412 105.489C20.8664 100.286 29.5962 99.1121 36.7715 96.0859C38.9342 95.179 40.9505 94.1002 42.6852 92.6873C46.684 89.4511 48.7116 84.7828 49.3536 80.1336C49.9844 75.4845 49.3536 70.778 48.7228 66.1289L76.0949 64C75.7569 70.6539 76.8045 77.4511 80.1387 83.4845C83.2589 89.136 88.5193 94.062 95.2102 96.6301C95.6608 96.8114 96.1114 96.9737 96.5732 97.1265C103.58 99.4367 111.791 99.1981 117.986 102.797C125.533 107.179 127.64 115.666 129.138 123.313C130.298 129.222 131.458 135.141 132.619 141.06Z" fill="#D19181"/>
<path d="M107.822 138.405C103.617 139.015 99.4128 139.915 95.229 140.845C83.9337 143.362 72.6799 146.107 61.395 144.246C56.6194 143.453 51.8957 141.837 47.0993 141.867C44.8361 141.882 42.5936 142.264 40.3616 142.797C36.3854 143.743 32.4507 145.176 28.4537 145.863C28.1527 145.909 27.8516 145.954 27.5401 146C25.7649 135.172 24.9655 123.993 25.1835 112.861C25.2665 108.606 25.4949 104.351 25.2562 100.111C25.225 99.5774 24.7059 98.9673 24.654 99.5011L24.4153 97C28.5472 102.582 33.8522 105.693 39.3545 107.675C41.0571 108.285 42.7805 108.789 44.4935 109.231C53.5464 111.564 62.7861 112.418 71.9635 111.763C79.6772 111.213 87.3285 109.612 94.9487 107.63C98.9353 106.608 102.922 105.479 106.888 104.351C107.251 115.697 107.552 127.044 107.822 138.405Z" fill="#7E4839"/>
<path d="M45 143.627C38.9526 144.283 32.9684 145.278 26.8895 145.754C26.4316 145.786 25.9737 145.817 25.5 145.849C16.3895 146.41 6.48947 145.521 0 141.246C1.72105 132.686 4.18423 124.189 7.37371 115.808C8.90528 111.766 10.7053 107.618 14.7 104.423C21.8842 98.6558 34.1211 97.3543 44.179 94C43.0421 102.349 42.7895 110.761 43.4526 119.142C43.4526 119.184 43.4526 119.216 43.4684 119.258C43.6579 121.702 43.9263 124.147 44.1474 126.58C44.6684 132.252 44.9684 137.934 45 143.627Z" fill="black"/>
<path d="M136 146C131.467 142.136 124.169 141.672 117.612 141.869C114.433 141.962 111.254 142.159 108.076 142.415C102.303 142.879 96.5294 143.563 90.7849 144.271C90.8704 135.847 90.6709 127.424 90.4001 119C90.343 116.726 90.2575 114.463 90.1862 112.189C89.9724 105.448 89.7443 98.6717 88.661 92C89.2312 92.2205 89.8014 92.4177 90.3858 92.6033C99.252 95.4112 109.644 95.1212 117.483 99.4955C127.034 104.821 129.7 115.136 131.595 124.43C133.064 131.612 134.532 138.806 136 146Z" fill="black"/>
<path d="M45.1069 66.681C45.9804 68.037 47.032 69.267 48.1896 70.391C49.3539 71.509 50.6625 72.498 52.1041 73.295C53.5333 74.103 55.083 74.762 56.7309 75.175C58.3652 75.648 60.084 75.846 61.8367 76.04C60.9643 76.102 60.075 76.174 59.1869 76.151C58.3032 76.084 57.4004 76.062 56.5336 75.851C54.7652 75.559 53.0858 74.896 51.5585 74.052C48.5108 72.341 46.154 69.675 45.1069 66.681Z" fill="#F6EFE9"/>
<path d="M66.1186 0.990569C57.9455 -1.26683 48.4571 0.520576 41.5007 4.46365C34.5444 8.40672 29.8487 14.24 26.6157 20.3295C23.384 26.4181 21.465 32.8475 19.0044 39.1385C17.1394 43.9056 15.4082 48.0478 15.9619 53C16.6547 59.1974 16.8825 67.4402 22.1507 72.2287C24.3061 74.189 20.8381 80.0558 22.1507 82.4017C25.1718 87.8036 32.443 87.9661 29.5746 93.4148C26.7061 98.8635 23.6122 104.818 25.9121 110.417C27.6907 114.748 32.3782 117.985 36.8726 121C31.4842 116.86 33.2033 109.806 37.3102 104.902C41.417 99.9988 47.4658 96.0323 50.6489 90.7535C52.7138 87.3282 53.4525 83.4564 52.7502 79.732C51.4578 72.8683 45.5791 67.0422 42.3974 60.5375C36.354 48.1803 41.1388 33.2412 53.9981 24.3194C55.9765 22.9471 58.1495 21.6846 59.6431 19.9989C64.1402 14.9215 61.1435 7.85331 64.2415 2.21337" fill="#1F0A0D"/>
<path d="M28.9957 42.2367C31.9875 45.2737 32.5526 50.0177 31.5625 54.0708C30.5725 58.1239 28.2763 61.6827 26.1467 65.249C23.1568 70.2572 20.4086 75.4919 18.998 81.1799C17.5875 86.8678 17.5988 93.0897 19.9976 98.5438C22.9988 105.37 29.5078 110.639 31.0285 117.9C32.201 123.505 30.1555 129.418 31.8297 134.907C33.1243 139.151 36.5268 142.555 40.3901 144.804C44.2534 147.054 48.5893 148.299 52.8718 149.52C48.6793 149.601 45.1603 145.687 44.2669 141.583C43.3735 137.479 44.4614 133.282 45.6355 129.304C46.8096 125.326 48.091 121.23 47.5774 117.073C46.6159 109.286 39.6143 103.057 38.7706 95.2594C38.0461 88.5734 41.9872 82.4928 43.6421 76.0373C45.5966 68.4165 44.2213 59.9267 39.9332 53.1442" fill="#1F0A0D"/>
<path d="M39.4568 44.0534C37.8286 54.5823 40.7991 74.1622 58.2547 75.8987C75.7091 77.6352 83.094 56.5987 83.9892 47.1409C84.8845 37.6832 82.6341 15.2473 63.6133 16.0194C44.5925 16.7926 41.2473 32.4736 39.4568 44.0534Z" fill="#D19181"/>
<path d="M66.585 14.3479C66.2612 12.1776 66.1601 9.963 66.6518 7.83732C66.7967 7.20946 66.9757 6.52259 66.6669 5.94165C66.3055 5.26331 65.4302 5.0154 64.647 4.92128C59.2589 4.27089 54.1585 7.55528 51.0263 11.7325C47.8952 15.9096 46.2535 20.9321 44.1166 25.6653C41.2745 31.9609 37.3957 38.3648 38.3457 45.2391C38.6456 42.0479 41.2749 40.9658 41.2749 40.9658C41.2749 40.9658 38.1675 44.9235 41.4995 49.7097C41.0691 45.7857 44.2094 42.4575 47.3618 40.0038C52.0447 36.3598 57.4711 33.4781 61.3748 29.0698C65.1023 24.8629 67.6425 21.4405 66.585 14.3479Z" fill="#1F0A0D"/>
<path d="M63.7268 14.0176C63.7231 12.2444 63.5614 10.457 63.0006 8.79769C62.8352 8.30757 62.6401 7.77335 62.7921 7.2774C62.9702 6.69824 63.5473 6.41533 64.0769 6.26471C67.7205 5.22622 71.5771 7.37393 74.1711 10.427C76.7643 13.4801 78.42 17.3545 80.3865 20.9493C83.002 25.7307 86.343 30.4996 86.4068 36.109C85.8668 33.576 83.9426 32.9594 83.9426 32.9594C83.9426 32.9594 86.4965 35.8385 84.7014 40C84.5879 36.8088 82.077 34.4381 79.6491 32.7705C76.0426 30.2941 72.0036 28.5008 68.854 25.3362C65.8468 22.3164 63.7394 19.8126 63.7268 14.0176Z" fill="#1F0A0D"/>
</svg>
